# xmcd
#
# Track frame offsets:
#	150
#	18521
#	34356
#	55923
#	69113
#	85199
#	96909
#	111893
#	131599
#	148787
#	165078
#	182604
#	200092
#	216671
#	231385
#	245380
#	259657
#	276757
#	294202
#	311028
#
# Disc length: 4389 seconds
#
# Revision: 1
# Processed by: cddbd v1.4PL0 Copyright (c) Steve Scherf et al.
# Submitted via: audiograbber 1.82.02
#
DISCID=28112314
DTITLE=Cezar e Paulinho - As Vinte mais
DYEAR=2003
DGENRE=Contry
TTITLE0=Chique no Urtimo
TTITLE1=Mel e morango
TTITLE2=Nunca mais
TTITLE3=Toda Noite
TTITLE4=Você marcou prá mim
TTITLE5=Pé de bode
TTITLE6=Morto de saudades suas
TTITLE7=Fui eu
TTITLE8=Veio de mim o seu amor
TTITLE9=Duas vezes você
TTITLE10=A gente se ama
TTITLE11=O Feijão e a Flor
TTITLE12=Nóis é Cowboy
TTITLE13=A Volta do Boiadeiro
TTITLE14=Noite maravilhosa
TTITLE15=Você é tudo que eu pedi prá Deus
TTITLE16=Viajante Solitário ( O Comboio)
TTITLE17=Mais você do quê eu
TTITLE18=Faz de conta que sou ele
TTITLE19=Cuida de mim Deus
EXTD=
EXTT0=
EXTT1=
EXTT2=
EXTT3=
EXTT4=
EXTT5=
EXTT6=
EXTT7=
EXTT8=
EXTT9=
EXTT10=
EXTT11=
EXTT12=
EXTT13=
EXTT14=
EXTT15=
EXTT16=
EXTT17=
EXTT18=
EXTT19=
PLAYORDER=
